<?xml version="1.0" standalone="no"?>
<!DOCTYPE svg PUBLIC "-//W3C//DTD SVG 20010904//EN"
 "http://www.w3.org/TR/2001/REC-SVG-20010904/DTD/svg10.dtd">
<svg version="1.0" xmlns="http://www.w3.org/2000/svg"
 width="512.000000pt" height="512.000000pt" viewBox="0 0 512.000000 512.000000"
 preserveAspectRatio="xMidYMid meet">
<metadata>
Created by potrace 1.14, written by Peter Selinger 2001-2017
</metadata>
<g transform="translate(0.000000,512.000000) scale(0.100000,-0.100000)"
fill="#000000" stroke="none">
<path d="M2873 4734 c-46 -23 -78 -97 -98 -224 -10 -58 -19 -114 -21 -125 -6
-27 -6 -322 0 -360 2 -16 7 -59 11 -95 4 -36 29 -171 55 -300 27 -129 51 -257
55 -285 3 -27 11 -81 16 -120 6 -38 13 -95 15 -125 3 -30 7 -66 9 -80 12 -68
20 -294 20 -560 0 -350 -8 -462 -45 -660 -10 -58 -22 -119 -25 -137 -3 -17
-14 -69 -25 -115 -10 -46 -22 -99 -25 -118 -3 -19 -8 -42 -10 -50 -2 -8 -7
-31 -10 -50 -3 -19 -8 -46 -10 -60 -12 -57 -14 -72 -21 -137 -12 -122 -13
-137 -14 -248 -2 -103 6 -210 15 -226 3 -3 7 -31 10 -60 14 -119 48 -198 98
-226 51 -29 151 -5 207 48 31 29 81 102 102 149 49 109 57 128 63 153 9 35 21
42 22 14 1 -66 5 -80 27 -101 23 -21 33 -50 35 -103 1 -13 12 -30 26 -39 24
-15 28 -15 69 0 50 19 149 114 200 191 100 151 198 416 221 595 4 30 9 63 10
72 2 9 7 52 10 95 4 43 8 94 10 113 2 19 7 71 10 115 3 44 8 91 10 105 2 14 6
54 10 90 3 36 8 81 10 100 3 19 7 69 10 110 19 250 65 298 300 315 134 9 154
13 209 39 192 90 300 414 242 726 -64 336 -236 647 -537 964 -133 141 -201
180 -308 178 -87 -1 -169 48 -306 182 -33 32 -75 65 -93 73 -30 12 -37 12 -58
-2 -20 -13 -24 -23 -24 -70 0 -48 -2 -54 -22 -57 -12 -2 -28 -13 -34 -26 l-12
-23 -6 28 c-15 59 -90 198 -131 242 -79 84 -200 122 -272 85z m531 -812 c30
-76 76 -234 91 -313 10 -51 45 -273 50 -319 4 -30 8 -68 10 -85 26 -224 27
-794 0 -988 -2 -17 -7 -57 -10 -87 -8 -80 -43 -303 -61 -395 -9 -44 -18 -91
-20 -105 -2 -14 -26 -115 -54 -225 -28 -110 -53 -205 -54 -212 -9 -47 -11 27
-13 385 -1 224 -3 668 -5 987 -2 319 0 641 5 715 15 276 19 389 19 563 0 98 1
177 3 175 1 -2 19 -45 39 -96z m576 -357 c41 -72 71 -175 90 -305 20 -142 -12
-390 -45 -343 -21 30 -62 154 -78 238 -23 115 -26 134 -33 194 -3 30 -8 64
-10 75 -2 12 -7 73 -10 136 l-7 115 32 -30 c18 -16 45 -52 61 -80z"/>
<path d="M1392 4630 c-64 -29 -139 -91 -269 -225 -133 -136 -217 -229 -322
-360 -40 -49 -80 -99 -89 -110 -74 -91 -232 -324 -294 -434 -122 -216 -222
-481 -244 -644 -3 -23 -10 -62 -14 -87 -9 -49 -6 -389 4 -430 3 -13 8 -41 11
-62 23 -151 109 -384 210 -568 207 -375 644 -871 896 -1017 82 -47 163 -57
221 -27 32 16 81 67 97 99 66 135 127 285 116 285 -2 0 1 15 6 33 13 47 22
140 23 239 0 84 6 109 11 51 39 -441 184 -725 411 -803 166 -58 318 6 413 173
50 88 106 262 125 389 3 21 9 62 13 90 5 29 8 150 8 268 0 231 -16 343 -57
395 -28 36 -53 18 -118 -82 -30 -46 -63 -89 -73 -94 -56 -31 -104 52 -127 220
-12 87 -15 386 -5 486 3 33 8 82 10 109 5 41 18 110 40 207 28 127 96 264 190
384 71 90 133 188 139 217 2 7 8 26 14 41 28 66 19 242 -15 293 -22 34 -51 38
-114 17 -138 -47 -152 -3 -164 517 -2 102 -6 194 -8 205 -3 11 -8 44 -12 72
-8 58 -41 116 -68 121 -30 6 -64 -25 -90 -81 -25 -52 -54 -157 -72 -262 -15
-81 -78 -300 -110 -380 -68 -170 -120 -240 -236 -321 -89 -62 -114 -93 -127
-152 -12 -53 -12 -158 0 -193 9 -25 110 -119 127 -119 25 0 36 -237 18 -345
-3 -16 -9 -55 -12 -85 -3 -30 -8 -66 -10 -80 -6 -42 -24 -172 -30 -220 -4 -25
-8 -56 -10 -70 -2 -14 -6 -50 -10 -80 -4 -30 -8 -68 -11 -85 -8 -63 -24 -229
-29 -305 -7 -97 -6 -380 1 -393 5 -8 4 -9 -3 -2 -6 6 -14 54 -17 107 -5 65
-25 173 -65 335 -73 298 -76 352 -31 539 34 142 37 153 46 204 4 19 8 44 10
55 6 33 6 167 -1 210 -21 134 -74 219 -174 277 -80 47 -112 57 -174 53 -69 -4
-141 -41 -201 -105 -88 -94 -127 -212 -122 -370 4 -107 21 -182 71 -305 50
-125 101 -289 118 -380 27 -144 13 -348 -29 -419 -29 -48 -134 47 -218 197
-46 82 -114 267 -132 357 -3 14 -9 41 -14 60 -5 19 -12 58 -16 85 -3 28 -8 59
-11 70 -3 11 -6 108 -8 215 -3 176 6 306 28 415 4 17 9 44 12 60 10 66 68 254
107 349 127 311 299 550 415 576 31 8 38 5 57 -17 12 -14 30 -35 41 -47 11
-11 27 -34 35 -50 22 -42 55 -61 84 -48 23 10 72 99 82 146 16 81 25 161 25
224 0 123 -11 171 -58 257 -6 11 -19 40 -27 65 -38 104 -100 133 -194 90z"/>
</g>
</svg>
